<?xml version="1.0" encoding="utf-8"?>
<!-- Generator: Adobe Illustrator 16.0.0, SVG Export Plug-In . SVG Version: 6.00 Build 0)  -->
<!DOCTYPE svg PUBLIC "-//W3C//DTD SVG 1.1//EN" "http://www.w3.org/Graphics/SVG/1.1/DTD/svg11.dtd">
<svg version="1.1" id="Layer_1" xmlns:sketch="http://www.bohemiancoding.com/sketch/ns"
	 xmlns="http://www.w3.org/2000/svg" xmlns:xlink="http://www.w3.org/1999/xlink" x="0px" y="0px" width="32px" height="32px"
	 viewBox="0 0 32 32" enable-background="new 0 0 32 32" xml:space="preserve">
<title></title>
<desc></desc>
<path id="trash-can" fill="#FB2C15" d="M19.56,2.675l3.654-1.627l0.407,0.914L8.09,8.876L7.684,7.963l3.654-1.627l-0.406-0.914
	c-0.453-1.016,0.002-2.191,1.011-2.64l4.571-2.036c1.007-0.448,2.189,0.006,2.639,1.015L19.56,2.675L19.56,2.675z M8,9.425v18.999
	c0,1.658,1.334,3.002,3,3.002h11c1.656,0,3-1.344,3-3.002V9.425H8L8,9.425z M12,12.425v16h1v-16H12L12,12.425z M16,12.425v16h1v-16
	H16L16,12.425z M20,12.425v16h1v-16H20L20,12.425z M12.354,3.694c-0.506,0.225-0.734,0.813-0.509,1.321l0.407,0.914l6.395-2.847
	l-0.407-0.914c-0.225-0.504-0.806-0.736-1.323-0.505L12.354,3.694L12.354,3.694z"/>
<rect x="12" y="12.5" fill="#FFFFFF" width="1" height="16"/>
<rect x="16" y="12.5" fill="#FFFFFF" width="1" height="16"/>
<rect x="20" y="12.5" fill="#FFFFFF" width="1" height="16"/>
</svg>
